<svg width="379" height="135" viewBox="0 0 379 135" fill="none" xmlns="http://www.w3.org/2000/svg">
<mask id="mask0_25_1613" style="mask-type:luminance" maskUnits="userSpaceOnUse" x="83" y="44" width="18" height="91">
<path d="M83.084 44.135H100.146V134.689H83.084V44.135Z" fill="white"/>
</mask>
<g mask="url(#mask0_25_1613)">
<mask id="mask1_25_1613" style="mask-type:luminance" maskUnits="userSpaceOnUse" x="83" y="44" width="18" height="91">
<path d="M88.4461 45.686C89.7874 62.6522 93.8143 78.0765 95.6359 90.5378C97.6479 104.111 101.098 128.79 99.8531 133.046C99.6627 133.787 99.4695 134.096 98.9892 134.343C98.4152 134.59 97.3609 134.713 96.6902 134.59C96.1133 134.404 95.3489 133.912 95.1556 133.54C95.059 133.109 95.2522 132.43 95.6359 132.121C96.1133 131.814 97.0738 131.505 97.7445 131.567C98.4152 131.629 99.2791 131.998 99.6627 132.368C99.9498 132.739 99.9498 133.48 99.6627 133.849C99.2791 134.219 98.4152 134.651 97.7445 134.651C96.9772 134.59 95.9229 134.219 95.1556 133.171C91.7056 128.853 92.8566 104.358 90.8417 90.8469C89.0201 78.3234 84.9961 63.0217 84.0356 54.8788C83.5581 50.683 82.5038 46.9188 83.7485 45.3147C84.3226 44.5758 85.5701 44.082 86.3374 44.1423C87.1047 44.2045 88.4461 45.686 88.4461 45.686Z" fill="white"/>
</mask>
<g mask="url(#mask1_25_1613)">
<path d="M79.915 41.6749H103.783V137.091H79.915V41.6749Z" fill="white"/>
</g>
</g>
<mask id="mask2_25_1613" style="mask-type:luminance" maskUnits="userSpaceOnUse" x="3" y="11" width="146" height="99">
<path d="M3.33105 11.1409H148.014V109.124H3.33105V11.1409Z" fill="white"/>
</mask>
<g mask="url(#mask2_25_1613)">
<mask id="mask3_25_1613" style="mask-type:luminance" maskUnits="userSpaceOnUse" x="3" y="11" width="145" height="99">
<path d="M4.37968 73.6337C3.41915 68.7594 3.80279 65.7359 4.37968 63.2686C5.05035 60.739 6.00805 58.1473 7.54263 55.5573C9.17099 52.7187 11.3762 49.7574 13.9651 46.8584C16.8411 43.835 20.1944 40.8116 23.8376 37.8504C27.6713 34.827 32.0818 31.7414 36.6827 28.9667C41.3802 26.1902 46.1715 23.4741 51.9234 21.1311C58.5391 18.5394 66.9736 16.1324 74.2601 14.4679C80.9696 12.9242 87.2955 11.6293 94.1017 11.3201C101.195 11.0129 109.342 11.6914 115.958 12.8017C121.71 13.7893 127.269 15.269 131.776 17.3048C135.993 19.1558 139.827 21.378 142.415 24.2771C145.291 27.4852 146.92 32.1749 147.494 36.1219C148.167 39.9483 148.071 43.6503 146.44 47.6595C144.524 52.5339 139.633 58.2716 135.322 63.0216C131.199 67.6491 126.311 71.7828 121.133 75.8542C116.055 79.8031 110.493 83.5673 104.648 87.0223C98.7992 90.4774 93.144 93.6855 86.2412 96.5846C78.2841 99.9171 67.4539 103.372 59.1132 105.53C52.4036 107.259 46.3648 109.048 40.2293 109.11C34.3808 109.11 28.2481 107.813 23.0703 106.024C17.7021 104.173 10.2253 99.7927 8.50032 97.8795C7.82965 97.2009 7.54263 96.462 7.92627 96.0907C8.30992 95.5969 10.5123 95.1652 11.2796 95.4121C11.9503 95.6591 12.5272 97.1406 12.1435 97.5722C11.6633 98.0039 9.36424 98.313 8.69072 98.0039C8.02005 97.6948 7.73303 96.2151 8.2133 95.7834C8.59694 95.4121 9.84166 95.1652 10.9926 95.3518C13.9651 95.7834 19.6204 101.335 24.6049 103.125C29.1092 104.79 34.1904 106.086 39.2716 106.147C44.9268 106.147 50.582 104.42 56.9079 102.754C64.9616 100.718 75.5048 97.3875 83.1749 94.1794C89.981 91.4029 95.443 88.2551 101.098 84.9244C106.85 81.5315 112.315 77.8918 117.299 74.0032C122.284 70.1787 126.982 66.1072 131.008 61.7267C135.129 57.2236 139.827 51.8554 141.745 47.3523C143.183 43.7106 143.373 40.3178 142.893 36.8627C142.415 33.2851 141.265 29.1515 138.869 26.2506C136.664 23.6607 133.404 21.7475 129.664 20.0209C125.64 18.1699 120.656 16.8109 115.287 15.8251C109.249 14.7752 101.772 14.0966 95.156 14.3435C88.7335 14.5905 82.6946 15.8251 76.2721 17.2444C69.2755 18.8485 61.2218 21.1311 54.8959 23.5985C49.3373 25.819 44.7335 28.4107 40.1326 31.125C35.725 33.7789 31.5077 36.7402 27.7679 39.6392C24.2213 42.4157 20.9617 45.3147 18.279 48.2156C15.8805 50.9299 13.6753 53.7063 12.1435 56.3584C10.7056 58.7655 9.84166 61.1707 9.17099 63.5155C8.59694 65.7359 8.2133 68.2655 8.30992 70.1787C8.30992 71.598 9.55464 73.0777 8.98059 73.8807C8.59694 74.4367 7.54263 74.9287 6.87196 74.9287C6.00805 74.9287 4.37968 73.6337 4.37968 73.6337Z" fill="white"/>
</mask>
<g mask="url(#mask3_25_1613)">
<path d="M-0.224121 8.85272H151.424V111.413H-0.224121V8.85272Z" fill="white"/>
</g>
</g>
<mask id="mask4_25_1613" style="mask-type:luminance" maskUnits="userSpaceOnUse" x="185" y="25" width="40" height="96">
<path d="M185.116 25.8849H224.402V120.013H185.116V25.8849Z" fill="white"/>
</mask>
<g mask="url(#mask4_25_1613)">
<mask id="mask5_25_1613" style="mask-type:luminance" maskUnits="userSpaceOnUse" x="185" y="25" width="40" height="95">
<path d="M189.865 26.9915C209.226 73.6961 221.497 105.902 223.509 114.416C224.086 116.821 224.757 118.303 223.989 119.166C223.509 119.66 222.071 119.967 221.307 119.907C220.633 119.845 219.772 119.351 219.676 118.919C219.485 118.425 220.443 117.068 221.21 116.946C221.977 116.759 224.086 117.5 224.277 118.056C224.47 118.55 223.128 119.782 222.361 119.907C221.594 120.029 220.54 119.598 219.485 118.61C214.211 113.428 204.819 75.1758 198.299 58.4565C193.602 46.4872 184.21 31.4964 185.264 27.6701C185.454 26.6842 186.318 26.1282 187.086 26.0038C187.85 25.8813 189.865 26.9915 189.865 26.9915Z" fill="white"/>
</mask>
<g mask="url(#mask5_25_1613)">
<path d="M181.428 23.5363H228.113V122.476H181.428V23.5363Z" fill="white"/>
</g>
</g>
<mask id="mask6_25_1613" style="mask-type:luminance" maskUnits="userSpaceOnUse" x="100" y="2" width="260" height="117">
<path d="M100.726 2.14389H359.718V118.226H100.726V2.14389Z" fill="white"/>
</mask>
<g mask="url(#mask6_25_1613)">
<mask id="mask7_25_1613" style="mask-type:luminance" maskUnits="userSpaceOnUse" x="100" y="2" width="260" height="117">
<path d="M101.195 50.6208C100.524 44.8228 101.195 42.7248 102.058 40.7495C102.92 38.529 103.974 36.3689 105.892 33.9637C108.481 30.8178 112.698 26.9914 116.725 23.8455C120.655 20.7599 124.776 17.9231 129.954 15.2691C135.799 12.3079 143.66 9.34668 150.563 7.24877C156.985 5.33559 163.311 3.91808 169.734 3.05295C175.772 2.31402 182.005 2.00491 187.947 2.25183C193.699 2.49875 199.641 3.23951 204.915 4.47228C210.09 5.70689 214.978 7.4335 219.198 9.5936C223.319 11.6915 227.633 13.6029 229.932 17.1823C233.191 22.4261 232.137 32.7291 231.083 39.5771C230.222 45.5617 228.113 50.9921 225.237 56.1738C222.455 61.1104 218.431 65.7982 214.404 70.1166C210.571 74.1277 206.544 77.8296 201.559 81.3469C196.381 84.9245 190.249 88.5021 183.826 91.2182C177.594 93.8703 169.927 96.0304 163.598 97.5101C158.23 98.7447 153.245 99.7306 148.454 99.9775C144.237 100.164 140.113 99.9171 136.47 99.2386C133.02 98.6203 129.664 97.6345 126.981 96.2755C124.296 94.9184 121.803 93.1917 120.175 91.156C118.353 88.8112 117.492 85.5409 117.203 82.8266C116.915 80.3592 117.203 77.9522 118.066 75.6073C118.834 73.3247 120.175 70.9195 121.997 68.8216C123.915 66.7237 126.407 64.7502 128.993 63.0217C131.679 61.2951 134.745 59.691 138.101 58.4564C141.551 57.2237 145.194 56.236 149.315 55.6799C154.206 54.9392 159.861 54.5075 165.803 55.0014C173.184 55.5574 182.482 58.087 189.959 59.9983C196.671 61.7889 202.613 63.8247 208.652 65.9226C214.595 68.0205 218.621 69.5002 226.002 72.7083C240.191 79.002 272.877 96.3377 286.393 102.631C293.009 105.715 296.556 107.319 301.443 109.232C305.948 110.837 310.071 112.441 314.576 113.366C319.083 114.354 324.067 114.97 328.572 115.095C332.598 115.217 336.912 114.908 340.266 114.354C343.045 113.922 345.156 113.366 347.552 112.441C350.428 111.33 354.165 108.245 356.18 107.875C357.137 107.691 357.905 107.813 358.479 108.06C358.959 108.307 359.439 108.923 359.439 109.357C359.439 109.726 358.959 110.343 358.382 110.59C357.808 110.837 356.754 110.899 356.18 110.714C355.509 110.527 354.645 109.602 354.645 109.11C354.742 108.678 355.413 108.122 355.987 107.937C356.563 107.753 357.618 107.753 358.192 107.937C358.766 108.184 359.439 108.739 359.439 109.17C359.533 109.602 359.15 109.973 358.575 110.467C357.234 111.7 352.537 114.107 349.374 115.279C346.591 116.327 344.005 116.946 340.746 117.438C336.912 117.994 332.215 118.303 327.708 118.116C322.82 117.931 317.355 117.253 312.467 116.143C307.676 115.095 303.362 113.49 298.761 111.762C293.776 109.849 290.227 108.184 283.517 105.099C270.002 98.8051 237.505 81.592 223.509 75.3623C216.322 72.1541 212.392 70.7951 206.544 68.6991C200.695 66.6011 194.943 64.688 188.427 62.9614C181.428 61.0482 172.803 58.6412 165.997 58.0248C160.532 57.5931 155.451 57.9626 150.946 58.5808C147.206 59.0728 144.044 59.8136 140.977 60.9238C138.005 61.9737 135.225 63.393 132.733 64.9349C130.337 66.4768 128.132 68.143 126.501 69.994C124.776 71.845 123.531 73.8807 122.764 75.9165C121.997 77.9522 121.71 80.0501 121.9 82.2102C122.093 84.555 122.571 87.3919 124.009 89.3672C125.256 91.0316 127.078 92.451 129.283 93.5612C131.392 94.7336 134.171 95.6591 137.047 96.2152C140.21 96.8315 143.756 97.1406 147.4 96.9559C151.807 96.8315 156.505 95.906 161.489 94.7336C167.528 93.3765 174.718 91.4029 180.757 88.8734C186.893 86.2816 192.741 82.8888 197.726 79.4959C202.517 76.1634 206.353 72.5858 210.09 68.6991C214.021 64.6258 217.854 60.1849 220.54 55.433C223.319 50.4983 225.331 45.3148 226.385 39.6393C227.44 33.223 228.974 23.5364 226.002 18.7242C224.183 15.6404 220.346 14.0967 216.706 12.2457C213.063 10.2722 208.556 8.60592 203.955 7.49569C199.067 6.32327 193.602 5.58251 188.234 5.33559C182.675 5.0905 176.923 5.27523 171.172 6.01599C165.229 6.75493 159.094 8.11207 153.055 9.90271C146.439 11.8762 138.962 14.6527 133.307 17.4914C128.323 19.9588 124.489 22.6731 120.655 25.6343C116.819 28.5333 112.985 31.6189 110.396 35.074C107.81 38.529 105.605 43.3412 105.125 46.3024C104.838 48.1534 106.466 50.0666 105.795 50.9921C105.412 51.5463 104.264 52.0402 103.593 51.978C102.729 51.978 101.195 50.6208 101.195 50.6208Z" fill="white"/>
</mask>
<g mask="url(#mask7_25_1613)">
<path d="M96.5933 -0.215515H363.466V120.585H96.5933V-0.215515Z" fill="white"/>
</g>
</g>
<mask id="mask8_25_1613" style="mask-type:luminance" maskUnits="userSpaceOnUse" x="113" y="100" width="98" height="30">
<path d="M113.319 100.323H210.555V129.564H113.319V100.323Z" fill="white"/>
</mask>
<g mask="url(#mask8_25_1613)">
<mask id="mask9_25_1613" style="mask-type:luminance" maskUnits="userSpaceOnUse" x="113" y="100" width="98" height="30">
<path d="M123.339 122.928C119.025 121.386 118.547 121.696 118.164 122.065C117.397 122.683 116.629 124.348 116.439 125.273C116.246 125.952 116.055 126.692 116.439 127.062C116.629 127.371 117.3 127.74 117.874 127.618C119.218 127.433 120.656 123.546 122.572 122.25C124.009 121.202 126.215 121.264 127.462 120.154C129.091 118.55 128.994 115.402 129.474 112.687C130.048 109.295 129.378 102.878 130.338 101.274C130.529 100.78 130.816 100.471 131.296 100.409C131.776 100.349 132.541 100.596 133.118 101.09C135.033 102.878 135.513 112.872 136.951 116.143C137.718 117.809 139.443 118.919 139.253 119.72C139.156 120.214 138.292 120.708 137.815 120.708C137.335 120.77 136.567 120.461 136.471 120.091C136.184 119.042 141.839 113.613 144.812 112.934C146.92 112.503 149.222 114.229 151.521 114.229C154.013 114.169 156.889 112.934 159.382 112.625C161.587 112.378 163.792 112.934 165.901 112.565C168.009 112.131 169.351 110.714 172.036 110.28C175.87 109.664 183.25 111.268 187.661 110.714C191.207 110.22 194.18 109.17 196.862 108.06C199.451 106.95 201.463 104.914 203.669 103.926C205.394 103.186 207.408 102.447 208.653 102.384C209.324 102.322 210.091 102.447 210.284 102.694C210.571 103.001 210.284 103.864 209.901 104.051C209.517 104.173 208.463 104.111 208.173 103.926C207.789 103.742 207.599 103.372 207.695 103.125C207.789 102.816 208.557 102.384 208.94 102.322C209.324 102.26 209.994 102.447 210.188 102.631C210.475 102.878 210.475 103.557 209.994 103.989C209.324 104.605 207.119 104.667 205.49 105.346C203.285 106.333 200.793 108.554 198.3 109.602C196.288 110.527 194.274 111.146 192.071 111.639C189.673 112.194 187.277 112.565 184.304 112.75C180.567 112.934 174.432 111.577 171.366 112.194C169.254 112.565 168.583 113.86 166.762 114.292C164.653 114.785 161.777 114.414 159.382 114.661C157.176 114.97 155.164 115.833 152.959 115.896C150.563 116.02 147.304 114.476 145.386 115.032C143.47 115.526 142.8 117.869 141.362 118.857C140.211 119.66 138.773 120.77 137.815 120.708C136.951 120.646 136.184 119.845 135.513 119.042C134.362 117.684 133.692 115.032 132.83 112.503C131.87 109.295 129.665 102.878 130.338 101.274C130.432 100.78 130.816 100.471 131.296 100.409C131.776 100.349 132.734 100.656 133.118 101.09C134.075 102.138 133.211 105.223 132.83 107.875C132.35 111.577 131.296 118.981 129.665 121.202C129.091 122.127 128.323 122.559 127.462 122.868C126.695 123.115 125.831 122.806 124.97 123.175C123.148 123.978 120.75 128.543 118.835 129.284C117.874 129.591 116.916 129.591 116.055 129.345C115.095 129.037 114.04 128.05 113.657 127.248C113.179 126.508 113.37 125.705 113.657 124.779C114.04 123.484 115.288 121.324 116.629 120.523C117.493 119.967 118.738 119.66 119.792 119.66C120.943 119.598 122.381 119.967 123.435 120.338C124.296 120.708 125.354 121.324 125.641 121.818C125.831 122.189 125.641 122.806 125.257 122.99C124.873 123.175 123.339 122.928 123.339 122.928Z" fill="white"/>
</mask>
<g mask="url(#mask9_25_1613)">
<path d="M109.823 97.9417H214.254V131.814H109.823V97.9417Z" fill="white"/>
</g>
</g>
<mask id="mask10_25_1613" style="mask-type:luminance" maskUnits="userSpaceOnUse" x="165" y="101" width="5" height="3">
<path d="M165.374 101.457H169.594V103.647H165.374V101.457Z" fill="white"/>
</mask>
<g mask="url(#mask10_25_1613)">
<mask id="mask11_25_1613" style="mask-type:luminance" maskUnits="userSpaceOnUse" x="165" y="101" width="5" height="3">
<path d="M166.091 101.953C169.544 101.891 169.637 102.322 169.544 102.569C169.35 102.878 168.583 103.31 168.199 103.31C167.625 103.248 166.668 102.384 166.761 102.075C166.761 101.828 167.338 101.521 167.722 101.459C168.199 101.459 169.16 101.644 169.35 101.891C169.544 102.2 169.447 102.754 169.16 103.001C168.776 103.31 168.009 103.619 167.435 103.619C166.761 103.679 165.613 103.433 165.42 103.125C165.23 102.878 166.091 101.953 166.091 101.953Z" fill="white"/>
</mask>
<g mask="url(#mask11_25_1613)">
<path d="M161.586 98.9916H173.385V106.086H161.586V98.9916Z" fill="white"/>
</g>
</g>
<mask id="mask12_25_1613" style="mask-type:luminance" maskUnits="userSpaceOnUse" x="142" y="105" width="7" height="3">
<path d="M142.486 105.331H148.008V107.67H142.486V105.331Z" fill="white"/>
</mask>
<g mask="url(#mask12_25_1613)">
<mask id="mask13_25_1613" style="mask-type:luminance" maskUnits="userSpaceOnUse" x="142" y="105" width="6" height="3">
<path d="M144.237 105.346C148.167 106.703 147.784 107.259 147.4 107.444C147.016 107.628 145.962 107.628 145.675 107.444C145.385 107.197 145.482 106.087 145.865 105.902C146.249 105.715 147.303 105.84 147.59 106.024C147.877 106.209 148.071 106.641 147.974 106.888C147.877 107.135 147.303 107.506 146.729 107.628C145.962 107.753 144.237 107.506 143.563 107.197C142.989 106.95 142.415 106.456 142.509 106.147C142.606 105.84 144.237 105.346 144.237 105.346Z" fill="white"/>
</mask>
<g mask="url(#mask13_25_1613)">
<path d="M138.676 102.878H151.907V110.096H138.676V102.878Z" fill="white"/>
</g>
</g>
<mask id="mask14_25_1613" style="mask-type:luminance" maskUnits="userSpaceOnUse" x="118" y="102" width="36" height="13">
<path d="M118.342 102.381H153.496V114.114H118.342V102.381Z" fill="white"/>
</mask>
<g mask="url(#mask14_25_1613)">
<mask id="mask15_25_1613" style="mask-type:luminance" maskUnits="userSpaceOnUse" x="118" y="102" width="36" height="13">
<path d="M119.12 112.318C152.384 102.385 153.054 102.631 153.245 102.878C153.535 103.125 153.438 103.557 153.151 103.742C152.861 103.989 152 104.173 151.52 104.111C151.136 104.051 150.659 103.742 150.562 103.495C150.466 103.248 150.753 102.569 151.233 102.447C151.616 102.322 152.958 102.507 153.245 102.816C153.438 103.063 153.245 103.557 152.574 104.051C149.795 106.147 124.392 113.86 120.271 114.045C119.311 114.107 118.64 113.922 118.45 113.675C118.256 113.366 119.12 112.318 119.12 112.318Z" fill="white"/>
</mask>
<g mask="url(#mask15_25_1613)">
<path d="M114.616 99.9171H157.224V116.512H114.616V99.9171Z" fill="white"/>
</g>
</g>
<mask id="mask16_25_1613" style="mask-type:luminance" maskUnits="userSpaceOnUse" x="254" y="62" width="125" height="49">
<path d="M254.75 62.3779H378.634V110.37H254.75V62.3779Z" fill="white"/>
</mask>
<g mask="url(#mask16_25_1613)">
<mask id="mask17_25_1613" style="mask-type:luminance" maskUnits="userSpaceOnUse" x="254" y="62" width="125" height="49">
<path d="M257.254 95.7213C262.812 99.1142 264.06 99.7928 265.211 99.5459C267.126 99.1142 268.851 94.5489 270.482 93.7478C271.153 93.3765 271.727 93.3143 272.591 93.3143C273.645 93.3765 275.273 94.302 276.521 94.302C277.575 94.302 278.82 93.9325 279.494 93.5612C280.164 93.1918 280.355 92.6979 280.738 92.0194C281.312 90.7848 281.889 88.5021 281.986 86.7755C282.08 85.1714 281.889 84.1837 281.409 82.148C280.451 78.1369 274.029 66.2299 275.37 64.132C275.754 63.5156 276.618 63.0839 277.288 63.2687C279.587 63.8247 282.273 75.547 284.859 79.4959C286.49 81.9633 288.215 83.6295 289.94 85.1092C291.188 86.2195 292.529 87.2693 293.87 87.8857C294.831 88.3174 295.885 88.6887 296.65 88.6887C297.323 88.6265 297.994 88.3174 298.471 87.9479C299.048 87.5766 299.335 86.9602 299.432 86.2195C299.719 85.2336 298.855 83.1961 299.335 82.3328C299.719 81.7164 300.58 80.9756 301.06 81.0378C301.634 81.1 301.157 83.6295 301.827 84.1216C302.308 84.4929 303.072 84.6154 303.839 84.555C305.758 84.3081 310.455 80.6665 312.084 80.6061C312.661 80.6061 313.235 80.9756 313.425 81.2225C313.522 81.4694 312.948 82.2102 313.044 82.2706C313.138 82.2706 313.522 81.4694 313.905 81.4694C314.673 81.5316 315.823 84.3685 317.068 85.6653C318.316 86.898 320.137 87.8857 321.479 89.1203C322.723 90.3531 323.971 91.6499 324.929 93.0674C325.793 94.4264 326.654 95.8439 326.847 97.3876C327.134 99.1142 326.75 101.274 326.08 102.939C325.599 104.42 324.929 105.715 323.778 106.888C322.533 108.122 319.944 109.849 318.699 110.096C318.029 110.22 317.355 110.096 317.068 109.911C316.781 109.726 316.685 109.479 316.685 109.11C316.685 107.998 317.932 105.715 319.847 102.939C324.355 96.153 337.774 74.7441 347.743 69.5624C353.208 66.7237 359.727 67.7736 364.805 66.4768C369.216 65.4288 374.393 62.837 376.596 62.5901C377.363 62.5279 378.034 62.5901 378.324 62.7748C378.611 63.0217 378.514 63.9472 378.13 64.132C377.747 64.3185 376.405 64.1942 376.118 63.9472C375.831 63.7003 376.022 62.837 376.405 62.6523C376.789 62.4675 377.843 62.5279 378.227 62.7145C378.514 62.9614 378.704 63.5778 378.227 64.0716C377.173 65.3044 370.27 67.1554 365.669 68.2656C360.781 69.438 354.933 68.2052 349.758 70.7348C340.076 75.547 327.324 96.8316 322.533 103.679C320.424 106.58 319.944 109.602 318.699 110.096C318.219 110.281 317.645 110.22 317.355 110.035C316.972 109.911 316.591 109.479 316.685 109.11C316.878 108.369 319.944 107.319 321.095 106.209C322.149 105.161 322.723 104.051 323.3 102.754C323.874 101.274 324.258 99.3611 324.068 97.8192C323.874 96.4621 323.491 95.5366 322.436 93.9325C320.521 91.0939 313.138 84.9245 311.7 82.7041C311.223 81.8389 310.742 81.1 311.126 80.8531C311.413 80.6665 313.044 80.7909 313.235 81.0378C313.522 81.3451 312.948 82.148 312.18 82.7644C310.742 83.8746 306.045 86.0347 304.033 86.3438C302.978 86.4664 302.115 86.3438 301.347 86.0969C300.58 85.9122 299.815 85.5409 299.335 84.9867C298.568 84.0612 297.61 81.2225 298.378 80.544C298.761 80.1745 300.39 80.0501 301.06 80.2348C301.731 80.4818 302.018 81.3451 302.211 82.148C302.595 83.3826 302.595 85.6653 302.115 86.9602C301.731 88.0083 300.964 88.8734 300.006 89.4276C299.048 89.9836 297.61 90.3531 296.363 90.3531C294.925 90.3531 293.2 89.7989 291.762 89.1807C290.227 88.4418 288.886 87.2693 287.448 86.0347C285.626 84.4307 283.805 82.6419 282.176 80.1123C279.587 76.1634 275.37 66.2921 275.37 64.3185C275.37 63.8869 275.467 63.7003 275.754 63.5156C276.041 63.3308 276.808 63.0839 277.288 63.2687C279.587 64.1942 283.231 77.7675 284.285 82.0255C284.859 84.1837 285.052 85.2336 284.859 86.898C284.765 88.8112 284.095 91.4633 283.231 92.8827C282.75 93.8082 282.176 94.4264 281.312 94.9806C280.451 95.597 279.204 96.2755 277.862 96.3999C276.234 96.4621 273.742 94.6111 272.207 95.0428C270.195 95.5366 269.331 99.5459 267.797 100.534C266.936 101.027 266.072 101.212 265.114 101.274C264.156 101.335 263.099 101.212 262.045 100.903C260.607 100.471 258.691 99.4855 257.444 98.6826C256.296 97.9418 254.761 96.8938 254.761 96.2755C254.761 95.9683 255.335 95.5366 255.719 95.4744C256.103 95.3519 257.254 95.7213 257.254 95.7213Z" fill="white"/>
</mask>
<g mask="url(#mask17_25_1613)">
<path d="M250.928 60.1227H382.211V112.625H250.928V60.1227Z" fill="white"/>
</g>
</g>
<mask id="mask18_25_1613" style="mask-type:luminance" maskUnits="userSpaceOnUse" x="265" y="68" width="36" height="14">
<path d="M265.546 68.6149H300.73V81.6139H265.546V68.6149Z" fill="white"/>
</mask>
<g mask="url(#mask18_25_1613)">
<mask id="mask19_25_1613" style="mask-type:luminance" maskUnits="userSpaceOnUse" x="265" y="68" width="36" height="14">
<path d="M266.168 79.9878C299.622 68.6368 300.292 68.8215 300.579 69.1306C300.772 69.3776 300.485 70.0561 300.198 70.1787C299.718 70.3634 298.377 70.3031 298.087 70.0561C297.8 69.8092 298.087 68.8837 298.471 68.699C298.854 68.5124 300.198 68.7593 300.485 69.0063C300.676 69.3154 300.579 69.8092 299.909 70.3031C297.129 72.4613 271.536 81.4693 267.412 81.5919C266.551 81.6541 265.881 81.4072 265.687 81.1602C265.497 80.853 266.168 79.9878 266.168 79.9878Z" fill="white"/>
</mask>
<g mask="url(#mask19_25_1613)">
<path d="M261.854 66.1694H304.422V84.0611H261.854V66.1694Z" fill="white"/>
</g>
</g>
<mask id="mask20_25_1613" style="mask-type:luminance" maskUnits="userSpaceOnUse" x="79" y="41" width="18" height="92">
<path d="M79.752 41.9911H96.8142V132.545H79.752V41.9911Z" fill="white"/>
</mask>
<g mask="url(#mask20_25_1613)">
<mask id="mask21_25_1613" style="mask-type:luminance" maskUnits="userSpaceOnUse" x="79" y="41" width="18" height="92">
<path d="M85.115 43.5422C86.4564 60.5084 90.4832 75.9327 92.3048 88.394C94.3168 101.967 97.7668 126.647 96.5221 130.903C96.3317 131.643 96.1384 131.953 95.6582 132.199C95.0841 132.446 94.0298 132.569 93.3591 132.446C92.7822 132.26 92.0178 131.768 91.8246 131.397C91.7279 130.965 91.9212 130.286 92.3048 129.977C92.7822 129.67 93.7428 129.361 94.4135 129.423C95.0841 129.485 95.948 129.855 96.3317 130.224C96.6187 130.595 96.6187 131.336 96.3317 131.706C95.948 132.075 95.0841 132.507 94.4135 132.507C93.6462 132.446 92.5918 132.075 91.8246 131.027C88.3746 126.709 89.5255 102.214 87.5107 88.7031C85.6891 76.1796 81.665 60.8779 80.7045 52.735C80.2271 48.5392 79.1728 44.775 80.4175 43.1709C80.9915 42.432 82.2391 41.9382 83.0064 41.9985C83.7737 42.0607 85.115 43.5422 85.115 43.5422Z" fill="white"/>
</mask>
<g mask="url(#mask21_25_1613)">
<path d="M76.584 39.5312H100.452V134.947H76.584V39.5312Z" fill="#333333"/>
</g>
</g>
<mask id="mask22_25_1613" style="mask-type:luminance" maskUnits="userSpaceOnUse" x="0" y="8" width="145" height="99">
<path d="M0 8.99704H144.683V106.981H0V8.99704Z" fill="white"/>
</mask>
<g mask="url(#mask22_25_1613)">
<mask id="mask23_25_1613" style="mask-type:luminance" maskUnits="userSpaceOnUse" x="0" y="9" width="145" height="98">
<path d="M1.04863 71.4899C0.0880913 66.6155 0.471737 63.5921 1.04863 61.1247C1.7193 58.5951 2.67699 56.0034 4.21157 53.4134C5.83994 50.5748 8.04519 47.6136 10.6341 44.7145C13.51 41.6911 16.8634 38.6677 20.5066 35.7065C24.3402 32.6831 28.7507 29.5975 33.3516 26.8228C38.0491 24.0464 42.8405 21.3302 48.5923 18.9872C55.2081 16.3955 63.6426 13.9885 70.929 12.324C77.6386 10.7803 83.9645 9.48536 90.7706 9.17625C97.8638 8.86897 106.011 9.54755 112.627 10.6578C118.379 11.6455 123.938 13.1252 128.445 15.1609C132.662 17.0119 136.496 19.2342 139.084 22.1332C141.96 25.3413 143.589 30.031 144.163 33.978C144.836 37.8044 144.74 41.5064 143.108 45.5156C141.193 50.39 136.302 56.1277 131.991 60.8778C127.868 65.5052 122.98 69.6389 117.802 73.7103C112.724 77.6592 107.162 81.4234 101.317 84.8784C95.4682 88.3335 89.8129 91.5416 82.9101 94.4407C74.953 97.7732 64.1229 101.228 55.7821 103.387C49.0726 105.115 43.0337 106.904 36.8982 106.966C31.0497 106.966 24.9171 105.669 19.7393 103.88C14.3711 102.029 6.89425 97.6488 5.16927 95.7356C4.4986 95.0571 4.21157 94.3181 4.59522 93.9468C4.97887 93.453 7.18128 93.0213 7.94857 93.2682C8.61924 93.5152 9.19613 94.9967 8.81248 95.4283C8.33222 95.86 6.03318 96.1691 5.35967 95.86C4.689 95.5509 4.40198 94.0712 4.88224 93.6395C5.26589 93.2682 6.51061 93.0213 7.66155 93.2079C10.6341 93.6395 16.2893 99.1907 21.2739 100.981C25.7782 102.646 30.8593 103.943 35.9405 104.003C41.5957 104.003 47.251 102.276 53.5769 100.61C61.6306 98.5743 72.1737 95.2436 79.8438 92.0355C86.65 89.259 92.112 86.1112 97.7672 82.7805C103.519 79.3877 108.984 75.7479 113.968 71.8593C118.953 68.0348 123.65 63.9633 127.677 59.5828C131.798 55.0797 136.496 49.7115 138.414 45.2084C139.852 41.5667 140.042 38.1739 139.562 34.7188C139.084 31.1412 137.933 27.0076 135.538 24.1067C133.333 21.5168 130.073 19.6036 126.333 17.877C122.309 16.026 117.325 14.667 111.956 13.6812C105.918 12.6313 98.4407 11.9527 91.8249 12.1997C85.4024 12.4466 79.3635 13.6812 72.941 15.1005C65.9445 16.7046 57.8907 18.9872 51.5648 21.4546C46.0062 23.6751 41.4025 26.2668 36.8016 28.9811C32.3939 31.635 28.1767 34.5963 24.4368 37.4953C20.8902 40.2718 17.6307 43.1708 14.948 46.0717C12.5495 48.786 10.3442 51.5625 8.81248 54.2146C7.37452 56.6216 6.51061 59.0268 5.83994 61.3716C5.26589 63.5921 4.88224 66.1216 4.97887 68.0348C4.97887 69.4541 6.22358 70.9338 5.64954 71.7368C5.26589 72.2928 4.21157 72.7848 3.5409 72.7848C2.67699 72.7848 1.04863 71.4899 1.04863 71.4899Z" fill="white"/>
</mask>
<g mask="url(#mask23_25_1613)">
<path d="M-3.55518 6.70883H148.093V109.269H-3.55518V6.70883Z" fill="#333333"/>
</g>
</g>
<mask id="mask24_25_1613" style="mask-type:luminance" maskUnits="userSpaceOnUse" x="181" y="23" width="41" height="95">
<path d="M181.785 23.7409H221.07V117.869H181.785V23.7409Z" fill="white"/>
</mask>
<g mask="url(#mask24_25_1613)">
<mask id="mask25_25_1613" style="mask-type:luminance" maskUnits="userSpaceOnUse" x="181" y="23" width="41" height="95">
<path d="M186.534 24.8475C205.895 71.5521 218.166 103.758 220.178 112.272C220.755 114.677 221.426 116.159 220.658 117.022C220.178 117.516 218.74 117.823 217.976 117.763C217.302 117.701 216.441 117.207 216.345 116.775C216.154 116.281 217.112 114.924 217.879 114.802C218.646 114.615 220.755 115.356 220.945 115.912C221.139 116.406 219.797 117.638 219.03 117.763C218.263 117.885 217.208 117.454 216.154 116.466C210.88 111.284 201.488 73.0318 194.968 56.3125C190.271 44.3433 180.879 29.3524 181.933 25.5261C182.123 24.5402 182.987 23.9842 183.755 23.8598C184.519 23.7373 186.534 24.8475 186.534 24.8475Z" fill="white"/>
</mask>
<g mask="url(#mask25_25_1613)">
<path d="M178.097 21.3925H224.782V120.333H178.097V21.3925Z" fill="#333333"/>
</g>
</g>
<mask id="mask26_25_1613" style="mask-type:luminance" maskUnits="userSpaceOnUse" x="97" y="0" width="260" height="117">
<path d="M97.395 0H356.387V116.082H97.395V0Z" fill="white"/>
</mask>
<g mask="url(#mask26_25_1613)">
<mask id="mask27_25_1613" style="mask-type:luminance" maskUnits="userSpaceOnUse" x="97" y="0" width="260" height="117">
<path d="M97.8635 48.4769C97.1928 42.6788 97.8635 40.5809 98.7274 38.6055C99.5885 36.3851 100.643 34.225 102.561 31.8198C105.15 28.6738 109.367 24.8475 113.394 21.7015C117.324 18.6159 121.445 15.7791 126.623 13.1252C132.468 10.1639 140.329 7.20273 147.232 5.10482C153.654 3.19164 159.98 1.77413 166.403 0.908996C172.441 0.170064 178.674 -0.139044 184.616 0.107876C190.368 0.354797 196.31 1.09556 201.584 2.32833C206.759 3.56293 211.647 5.28955 215.867 7.44965C219.988 9.54756 224.302 11.4589 226.601 15.0383C229.86 20.2822 228.806 30.5852 227.752 37.4331C226.891 43.4177 224.782 48.8482 221.906 54.0298C219.124 58.9664 215.1 63.6542 211.073 67.9726C207.24 71.9837 203.213 75.6857 198.228 79.2029C193.05 82.7805 186.918 86.3581 180.495 89.0743C174.263 91.7264 166.596 93.8865 160.267 95.3662C154.899 96.6008 149.914 97.5866 145.123 97.8335C140.906 98.0201 136.782 97.7732 133.139 97.0946C129.689 96.4764 126.333 95.4905 123.65 94.1316C120.965 92.7744 118.472 91.0478 116.844 89.0121C115.022 86.6672 114.161 83.3969 113.871 80.6826C113.584 78.2152 113.871 75.8082 114.735 73.4634C115.503 71.1808 116.844 68.7756 118.666 66.6777C120.584 64.5797 123.076 62.6062 125.662 60.8778C128.348 59.1511 131.414 57.5471 134.77 56.3125C138.22 55.0797 141.863 54.092 145.984 53.536C150.875 52.7952 156.53 52.3636 162.472 52.8574C169.852 53.4134 179.151 55.943 186.628 57.8544C193.34 59.645 199.282 61.6807 205.321 63.7786C211.264 65.8765 215.29 67.3562 222.671 70.5644C236.86 76.8581 269.546 94.1937 283.062 100.487C289.678 103.571 293.224 105.175 298.112 107.088C302.617 108.693 306.74 110.297 311.244 111.222C315.752 112.21 320.736 112.826 325.24 112.951C329.267 113.073 333.581 112.764 336.935 112.21C339.714 111.778 341.825 111.222 344.221 110.297C347.097 109.186 350.834 106.101 352.849 105.731C353.806 105.547 354.574 105.669 355.148 105.916C355.628 106.163 356.108 106.779 356.108 107.213C356.108 107.582 355.628 108.199 355.051 108.446C354.477 108.693 353.423 108.755 352.849 108.57C352.178 108.383 351.314 107.458 351.314 106.966C351.411 106.534 352.081 105.978 352.656 105.794C353.232 105.609 354.287 105.609 354.861 105.794C355.435 106.04 356.108 106.595 356.108 107.026C356.202 107.458 355.818 107.829 355.244 108.323C353.903 109.556 349.206 111.963 346.043 113.135C343.26 114.183 340.674 114.802 337.415 115.294C333.581 115.85 328.884 116.159 324.377 115.972C319.489 115.787 314.024 115.109 309.136 113.999C304.345 112.951 300.031 111.346 295.43 109.618C290.445 107.705 286.896 106.04 280.186 102.955C266.671 96.6611 234.174 79.448 220.178 73.2183C212.991 70.0102 209.061 68.6512 203.213 66.5551C197.364 64.4572 191.612 62.544 185.096 60.8174C178.097 58.9042 169.472 56.4972 162.666 55.8808C157.201 55.4492 152.12 55.8186 147.615 56.4368C143.875 56.9289 140.712 57.6696 137.646 58.7799C134.674 59.8297 131.894 61.2491 129.402 62.7909C127.006 64.3328 124.801 65.9991 123.17 67.8501C121.445 69.7011 120.2 71.7368 119.433 73.7725C118.666 75.8082 118.379 77.9061 118.569 80.0662C118.762 82.4111 119.24 85.2479 120.678 87.2233C121.925 88.8877 123.747 90.307 125.952 91.4173C128.061 92.5897 130.84 93.5152 133.716 94.0712C136.879 94.6876 140.425 94.9967 144.069 94.812C148.476 94.6876 153.174 93.7621 158.158 92.5897C164.197 91.2325 171.387 89.259 177.426 86.7294C183.561 84.1377 189.41 80.7448 194.394 77.3519C199.186 74.0194 203.022 70.4418 206.759 66.5551C210.689 62.4818 214.523 58.0409 217.209 53.2891C219.988 48.3543 222 43.1708 223.054 37.4953C224.109 31.079 225.643 21.3924 222.671 16.5802C220.852 13.4965 217.015 11.9527 213.375 10.1018C209.732 8.12822 205.225 6.46196 200.624 5.35174C195.736 4.17932 190.271 3.43856 184.903 3.19164C179.344 2.94655 173.592 3.13128 167.84 3.87204C161.898 4.61098 155.763 5.96812 149.724 7.75875C143.108 9.73229 135.631 12.5088 129.976 15.3474C124.992 17.8148 121.158 20.5291 117.324 23.4903C113.488 26.3894 109.654 29.475 107.065 32.93C104.479 36.3851 102.274 41.1973 101.794 44.1585C101.507 46.0095 103.135 47.9227 102.464 48.8482C102.081 49.4024 100.933 49.8962 100.262 49.834C99.3981 49.834 97.8635 48.4769 97.8635 48.4769Z" fill="white"/>
</mask>
<g mask="url(#mask27_25_1613)">
<path d="M93.2632 -2.35953H360.136V118.441H93.2632V-2.35953Z" fill="#333333"/>
</g>
</g>
<mask id="mask28_25_1613" style="mask-type:luminance" maskUnits="userSpaceOnUse" x="109" y="98" width="99" height="30">
<path d="M109.987 98.1793H207.223V127.42H109.987V98.1793Z" fill="white"/>
</mask>
<g mask="url(#mask28_25_1613)">
<mask id="mask29_25_1613" style="mask-type:luminance" maskUnits="userSpaceOnUse" x="110" y="98" width="98" height="30">
<path d="M120.007 120.784C115.693 119.243 115.215 119.552 114.832 119.921C114.065 120.539 113.297 122.204 113.107 123.129C112.914 123.808 112.723 124.549 113.107 124.918C113.297 125.227 113.968 125.597 114.542 125.474C115.886 125.289 117.324 121.403 119.239 120.106C120.677 119.058 122.883 119.12 124.13 118.01C125.759 116.406 125.662 113.258 126.142 110.544C126.716 107.151 126.046 100.734 127.006 99.1304C127.197 98.6366 127.484 98.3275 127.964 98.2653C128.444 98.2049 129.209 98.4518 129.785 98.9457C131.701 100.734 132.181 110.728 133.619 113.999C134.386 115.665 136.111 116.775 135.921 117.576C135.824 118.07 134.96 118.564 134.483 118.564C134.003 118.626 133.235 118.317 133.139 117.948C132.852 116.898 138.507 111.469 141.48 110.791C143.588 110.359 145.89 112.086 148.189 112.086C150.681 112.025 153.557 110.791 156.05 110.481C158.255 110.235 160.46 110.791 162.569 110.421C164.677 109.988 166.019 108.57 168.704 108.137C172.538 107.52 179.918 109.124 184.329 108.57C187.875 108.076 190.848 107.026 193.53 105.916C196.119 104.806 198.131 102.77 200.337 101.783C202.062 101.042 204.076 100.303 205.321 100.241C205.992 100.178 206.759 100.303 206.952 100.55C207.239 100.857 206.952 101.72 206.569 101.907C206.185 102.029 205.131 101.967 204.841 101.783C204.457 101.598 204.267 101.228 204.363 100.981C204.457 100.672 205.224 100.241 205.608 100.178C205.992 100.116 206.662 100.303 206.856 100.488C207.143 100.734 207.143 101.413 206.662 101.845C205.992 102.461 203.787 102.523 202.158 103.202C199.953 104.19 197.461 106.41 194.968 107.458C192.956 108.384 190.941 109.002 188.739 109.496C186.341 110.05 183.945 110.421 180.972 110.606C177.235 110.791 171.1 109.433 168.034 110.05C165.922 110.421 165.251 111.716 163.43 112.148C161.321 112.642 158.445 112.27 156.05 112.517C153.844 112.826 151.832 113.69 149.627 113.752C147.231 113.876 143.972 112.332 142.054 112.888C140.138 113.382 139.468 115.725 138.03 116.713C136.879 117.516 135.441 118.626 134.483 118.564C133.619 118.502 132.852 117.701 132.181 116.898C131.03 115.541 130.36 112.888 129.498 110.359C128.538 107.151 126.333 100.734 127.006 99.1304C127.1 98.6366 127.484 98.3275 127.964 98.2653C128.444 98.2049 129.402 98.5122 129.785 98.9457C130.743 99.9937 129.879 103.079 129.498 105.731C129.018 109.433 127.964 116.837 126.333 119.058C125.759 119.983 124.991 120.415 124.13 120.724C123.363 120.971 122.499 120.662 121.638 121.031C119.816 121.834 117.418 126.4 115.502 127.14C114.542 127.448 113.584 127.448 112.723 127.201C111.763 126.893 110.708 125.906 110.325 125.105C109.847 124.364 110.038 123.561 110.325 122.635C110.708 121.34 111.956 119.18 113.297 118.379C114.161 117.823 115.406 117.516 116.46 117.516C117.611 117.454 119.049 117.823 120.103 118.194C120.964 118.564 122.022 119.18 122.309 119.674C122.499 120.045 122.309 120.662 121.925 120.847C121.541 121.031 120.007 120.784 120.007 120.784Z" fill="white"/>
</mask>
<g mask="url(#mask29_25_1613)">
<path d="M106.492 95.7979H210.923V129.67H106.492V95.7979Z" fill="#333333"/>
</g>
</g>
<mask id="mask30_25_1613" style="mask-type:luminance" maskUnits="userSpaceOnUse" x="162" y="99" width="5" height="3">
<path d="M162.043 99.3133H166.263V101.503H162.043V99.3133Z" fill="white"/>
</mask>
<g mask="url(#mask30_25_1613)">
<mask id="mask31_25_1613" style="mask-type:luminance" maskUnits="userSpaceOnUse" x="162" y="99" width="5" height="3">
<path d="M162.76 99.809C166.212 99.7468 166.306 100.178 166.212 100.425C166.019 100.734 165.252 101.166 164.868 101.166C164.294 101.104 163.337 100.241 163.43 99.9315C163.43 99.6846 164.007 99.3773 164.391 99.3151C164.868 99.3151 165.829 99.4999 166.019 99.7468C166.212 100.056 166.116 100.61 165.829 100.857C165.445 101.166 164.678 101.475 164.104 101.475C163.43 101.536 162.282 101.289 162.089 100.981C161.899 100.734 162.76 99.809 162.76 99.809Z" fill="white"/>
</mask>
<g mask="url(#mask31_25_1613)">
<path d="M158.255 96.8477H170.054V103.943H158.255V96.8477Z" fill="#333333"/>
</g>
</g>
<mask id="mask32_25_1613" style="mask-type:luminance" maskUnits="userSpaceOnUse" x="139" y="103" width="6" height="3">
<path d="M139.155 103.187H144.677V105.526H139.155V103.187Z" fill="white"/>
</mask>
<g mask="url(#mask32_25_1613)">
<mask id="mask33_25_1613" style="mask-type:luminance" maskUnits="userSpaceOnUse" x="139" y="103" width="6" height="3">
<path d="M140.906 103.202C144.836 104.559 144.453 105.115 144.069 105.3C143.685 105.485 142.631 105.485 142.344 105.3C142.054 105.053 142.151 103.943 142.534 103.758C142.918 103.571 143.972 103.696 144.259 103.88C144.546 104.065 144.74 104.497 144.643 104.744C144.546 104.991 143.972 105.362 143.398 105.485C142.631 105.609 140.906 105.362 140.232 105.053C139.658 104.806 139.084 104.312 139.178 104.003C139.275 103.696 140.906 103.202 140.906 103.202Z" fill="white"/>
</mask>
<g mask="url(#mask33_25_1613)">
<path d="M135.344 100.734H148.576V107.952H135.344V100.734Z" fill="#333333"/>
</g>
</g>
<mask id="mask34_25_1613" style="mask-type:luminance" maskUnits="userSpaceOnUse" x="115" y="100" width="36" height="12">
<path d="M115.011 100.237H150.165V111.97H115.011V100.237Z" fill="white"/>
</mask>
<g mask="url(#mask34_25_1613)">
<mask id="mask35_25_1613" style="mask-type:luminance" maskUnits="userSpaceOnUse" x="115" y="100" width="36" height="12">
<path d="M115.79 110.174C149.053 100.241 149.724 100.487 149.914 100.734C150.204 100.981 150.108 101.413 149.82 101.598C149.531 101.845 148.67 102.029 148.189 101.967C147.806 101.907 147.328 101.598 147.232 101.351C147.135 101.104 147.422 100.425 147.902 100.303C148.286 100.178 149.627 100.363 149.914 100.672C150.108 100.919 149.914 101.413 149.244 101.907C146.464 104.003 121.061 111.716 116.941 111.901C115.98 111.963 115.309 111.778 115.119 111.531C114.926 111.222 115.79 110.174 115.79 110.174Z" fill="white"/>
</mask>
<g mask="url(#mask35_25_1613)">
<path d="M111.285 97.7732H153.893V114.368H111.285V97.7732Z" fill="#333333"/>
</g>
</g>
<mask id="mask36_25_1613" style="mask-type:luminance" maskUnits="userSpaceOnUse" x="251" y="60" width="125" height="49">
<path d="M251.418 60.2339H375.302V108.226H251.418V60.2339Z" fill="white"/>
</mask>
<g mask="url(#mask36_25_1613)">
<mask id="mask37_25_1613" style="mask-type:luminance" maskUnits="userSpaceOnUse" x="251" y="60" width="125" height="49">
<path d="M253.921 93.5774C259.48 96.9703 260.728 97.6489 261.879 97.4019C263.794 96.9703 265.519 92.405 267.15 91.6039C267.821 91.2326 268.395 91.1704 269.259 91.1704C270.313 91.2326 271.941 92.1581 273.189 92.1581C274.243 92.1581 275.488 91.7886 276.162 91.4173C276.832 91.0479 277.023 90.554 277.406 89.8754C277.98 88.6408 278.557 86.3582 278.654 84.6316C278.748 83.0275 278.557 82.0398 278.077 80.0041C277.119 75.993 270.697 64.086 272.038 61.988C272.422 61.3717 273.286 60.94 273.956 61.1247C276.255 61.6808 278.941 73.4031 281.527 77.352C283.158 79.8194 284.883 81.4856 286.608 82.9653C287.856 84.0755 289.197 85.1254 290.538 85.7418C291.499 86.1735 292.553 86.5448 293.318 86.5448C293.991 86.4826 294.662 86.1735 295.139 85.804C295.716 85.4327 296.003 84.8163 296.1 84.0755C296.387 83.0897 295.523 81.0521 296.003 80.1888C296.387 79.5724 297.248 78.8317 297.728 78.8939C298.302 78.9561 297.825 81.4856 298.495 81.9776C298.976 82.3489 299.74 82.4715 300.507 82.4111C302.426 82.1642 307.123 78.5226 308.752 78.4622C309.328 78.4622 309.903 78.8317 310.093 79.0786C310.19 79.3255 309.615 80.0663 309.712 80.1266C309.806 80.1266 310.19 79.3255 310.573 79.3255C311.34 79.3877 312.491 82.2246 313.736 83.5213C314.984 84.7541 316.805 85.7418 318.147 86.9764C319.391 88.2092 320.639 89.506 321.597 90.9235C322.461 92.2825 323.322 93.7 323.515 95.2437C323.802 96.9703 323.418 99.1304 322.748 100.795C322.267 102.276 321.597 103.571 320.446 104.744C319.201 105.978 316.612 107.705 315.367 107.952C314.697 108.076 314.023 107.952 313.736 107.767C313.449 107.582 313.352 107.335 313.352 106.966C313.352 105.854 314.6 103.571 316.515 100.795C321.023 94.0091 334.442 72.6001 344.411 67.4185C349.876 64.5798 356.395 65.6297 361.473 64.3329C365.884 63.2848 371.061 60.6931 373.264 60.4462C374.031 60.384 374.702 60.4462 374.992 60.6309C375.279 60.8778 375.182 61.8033 374.798 61.988C374.415 62.1746 373.073 62.0502 372.786 61.8033C372.499 61.5564 372.69 60.6931 373.073 60.5084C373.457 60.3236 374.511 60.384 374.895 60.5705C375.182 60.8175 375.372 61.4338 374.895 61.9277C373.841 63.1605 366.938 65.0115 362.337 66.1217C357.449 67.2941 351.601 66.0613 346.426 68.5909C336.744 73.4031 323.992 94.6876 319.201 101.536C317.092 104.436 316.612 107.458 315.367 107.952C314.887 108.137 314.313 108.076 314.023 107.891C313.64 107.767 313.259 107.335 313.352 106.966C313.546 106.225 316.612 105.175 317.763 104.065C318.817 103.017 319.391 101.907 319.968 100.61C320.542 99.1304 320.926 97.2172 320.736 95.6753C320.542 94.3182 320.159 93.3927 319.104 91.7886C317.189 88.9499 309.806 82.7806 308.368 80.5601C307.891 79.695 307.41 78.9561 307.794 78.7091C308.081 78.5226 309.712 78.647 309.903 78.8939C310.19 79.2012 309.615 80.0041 308.848 80.6205C307.41 81.7307 302.713 83.8908 300.701 84.1999C299.646 84.3225 298.782 84.1999 298.015 83.953C297.248 83.7683 296.483 83.397 296.003 82.8428C295.236 81.9173 294.278 79.0786 295.045 78.4C295.429 78.0306 297.057 77.9062 297.728 78.0909C298.399 78.3378 298.686 79.2012 298.879 80.0041C299.263 81.2387 299.263 83.5213 298.782 84.8163C298.399 85.8644 297.632 86.7295 296.674 87.2837C295.716 87.8397 294.278 88.2092 293.031 88.2092C291.593 88.2092 289.868 87.655 288.43 87.0368C286.895 86.2978 285.554 85.1254 284.116 83.8908C282.294 82.2867 280.473 80.4979 278.844 77.9684C276.255 74.0195 272.038 64.1481 272.038 62.1746C272.038 61.743 272.135 61.5564 272.422 61.3717C272.709 61.1869 273.476 60.94 273.956 61.1247C276.255 62.0502 279.899 75.6235 280.953 79.8816C281.527 82.0398 281.72 83.0897 281.527 84.7541C281.433 86.6673 280.762 89.3194 279.899 90.7387C279.418 91.6642 278.844 92.2825 277.98 92.8367C277.119 93.453 275.872 94.1316 274.53 94.256C272.902 94.3182 270.41 92.4672 268.875 92.8988C266.863 93.3927 265.999 97.4019 264.465 98.3896C263.604 98.8835 262.74 99.0682 261.782 99.1304C260.824 99.1907 259.767 99.0682 258.713 98.7591C257.275 98.3274 255.359 97.3416 254.112 96.5386C252.964 95.7979 251.429 94.7498 251.429 94.1316C251.429 93.8243 252.003 93.3927 252.387 93.3305C252.771 93.208 253.921 93.5774 253.921 93.5774Z" fill="white"/>
</mask>
<g mask="url(#mask37_25_1613)">
<path d="M247.596 57.9788H378.879V110.481H247.596V57.9788Z" fill="#333333"/>
</g>
</g>
<mask id="mask38_25_1613" style="mask-type:luminance" maskUnits="userSpaceOnUse" x="262" y="66" width="36" height="14">
<path d="M262.215 66.471H297.399V79.47H262.215V66.471Z" fill="white"/>
</mask>
<g mask="url(#mask38_25_1613)">
<mask id="mask39_25_1613" style="mask-type:luminance" maskUnits="userSpaceOnUse" x="262" y="66" width="36" height="14">
<path d="M262.837 77.844C296.291 66.493 296.962 66.6777 297.249 66.9868C297.442 67.2337 297.155 67.9123 296.868 68.0348C296.388 68.2196 295.046 68.1592 294.756 67.9123C294.469 67.6654 294.756 66.7399 295.14 66.5552C295.524 66.3686 296.868 66.6155 297.155 66.8624C297.345 67.1715 297.249 67.6654 296.578 68.1592C293.799 70.3175 268.205 79.3255 264.082 79.4481C263.221 79.5103 262.55 79.2633 262.357 79.0164C262.166 78.7091 262.837 77.844 262.837 77.844Z" fill="white"/>
</mask>
<g mask="url(#mask39_25_1613)">
<path d="M258.523 64.0256H301.091V81.9173H258.523V64.0256Z" fill="#333333"/>
</g>
</g>
</svg>
